<svg xmlns="http://www.w3.org/2000/svg" viewBox="0 0 452.14 468.07"><defs><style>.cls-1{font-size:34.38px;font-family:SegoeUI-Bold, Segoe UI;}.cls-1,.cls-2,.cls-3,.cls-4,.cls-7{fill:#fff;}.cls-1,.cls-2{font-weight:700;}.cls-2{font-size:13.79px;font-family:SegoeUI-BoldItalic, Segoe UI;font-style:italic;letter-spacing:0.12em;}.cls-4{font-size:25.91px;}.cls-4,.cls-7{font-family:SegoeUI-Semibold, Segoe UI;font-weight:600;}.cls-5{letter-spacing:-0.01em;}.cls-6{letter-spacing:-0.02em;}.cls-7{font-size:23.77px;letter-spacing:0em;}.cls-8{letter-spacing:0em;}.cls-9{letter-spacing:0em;}</style></defs><title>logo</title><g id="OBJECTS"><text class="cls-1" transform="translate(17.1 445.5)">SPRING FLOWER SCHOOL</text><text class="cls-2" transform="translate(34.38 464.1)">Empowering young minds for a better tomorrow</text><path class="cls-3" d="M349.89,300.93,310,317l-47.95,19.37-.05,0-.26.1-.38.14c-.39.14-.77.28-1.16.39-.21.07-.43.12-.66.18s-.65.17-1,.24l-.78.12c-.3,0-.6.09-.91.12l-.83.06-.87,0h0c-.49,0-1,0-1.47-.07l-.23,0c-.42,0-.85-.11-1.28-.18l-.41-.06-.18-.05c-.32-.06-.64-.14-1-.23a5,5,0,0,1-.52-.14c-.39-.11-.77-.25-1.14-.39l-.39-.14L116,283c-9-3.63-13.84-13.77-10.37-22.81a17.57,17.57,0,0,1,23-10l117.88,47.63,2,.8a18,18,0,0,0,13.44,0l106.57-43.06,22.2-9c2.65-1,2.39-4.14.17-5.33L268,185.77a31.12,31.12,0,0,0-25.56,0L113.9,243.72a24.11,24.11,0,0,0-.91,45l132.59,53.57a23.6,23.6,0,0,0,4.9,1.52l.32.06c.58.11,1.17.19,1.76.26l.52.05c.69.06,1.39.1,2.11.1h0a24.09,24.09,0,0,0,9-1.75l121.46-49.06c5.89-2.38,6.91-4.5,6.91-9.82Zm-94.7-6.71h0ZM115.92,243.1l-.14,0,.14,0m4.09-.7-.41,0,.41,0m-2,.26-.31.06.31-.06" transform="translate(-23.93 -13.5)"/><path class="cls-3" d="M255.18,329.57a19.69,19.69,0,0,1-5.61-.82l-.19-.07L121.54,277a2,2,0,1,1,1.52-3.77l127.75,51.69a15.37,15.37,0,0,0,8.76,0l123.35-49.74a2,2,0,0,1,1.52,3.78L261,328.69l-.19.06a19.87,19.87,0,0,1-5.63.82" transform="translate(-23.93 -13.5)"/><path class="cls-3" d="M255.18,315.38a19.69,19.69,0,0,1-5.61-.82l-.19-.07L121.54,262.76a2,2,0,1,1,1.52-3.78l127.75,51.7a15.37,15.37,0,0,0,8.76,0l123.35-49.74a2,2,0,0,1,1.52,3.78L261,314.49l-.19.07a19.87,19.87,0,0,1-5.63.82" transform="translate(-23.93 -13.5)"/><path class="cls-3" d="M245.21,120.51l-100.6,45.93a3.24,3.24,0,0,0,0,5.91l100.6,46a11.6,11.6,0,0,0,9.58,0l100.61-46a3.26,3.26,0,0,0,0-5.91L254.79,120.51a11.53,11.53,0,0,0-9.58,0" transform="translate(-23.93 -13.5)"/><path class="cls-3" d="M249.46,272.67c-44.25,0-77.61-15.06-77.61-35v-52.2l70.84,32.35a17.6,17.6,0,0,0,14.62,0l69.77-31.86v51.71c0,20-33.37,35-77.62,35" transform="translate(-23.93 -13.5)"/><path class="cls-3" d="M259.65,222.93a23.22,23.22,0,0,1-19.3,0l-62.86-28.7v43.42c0,16.22,32.22,29.38,72,29.38s72-13.16,72-29.38V194.72Z" transform="translate(-23.93 -13.5)"/><path class="cls-3" d="M108.59,99.27c-8.46,7.15-10.37,18.81-10.37,18.81s11.81,0,20.27-7.1,10.38-18.81,10.38-18.81-11.81-.06-20.28,7.1" transform="translate(-23.93 -13.5)"/><path class="cls-3" d="M155.8,376.41a36.53,36.53,0,0,1,6.63,20c0,.14-14.63-4.56-20.9-14.78a25.56,25.56,0,0,1-2.76-20.14c0,.1,10.33,5.68,17,14.9" transform="translate(-23.93 -13.5)"/><path class="cls-3" d="M144.25,407.31A25.14,25.14,0,0,0,162.54,396c-.16,0-13.93-4.5-26-3.54A33.26,33.26,0,0,0,117,400.86c-.17,0,14.05,8.22,27.28,6.45" transform="translate(-23.93 -13.5)"/><path class="cls-3" d="M130.53,364.16a35.77,35.77,0,0,1,2.25,20.4c0,.14-12.77-6.81-16.75-17.74s1.36-19.93,1.27-19.92,8.75,7.25,13.23,17.26" transform="translate(-23.93 -13.5)"/><path class="cls-3" d="M113.58,392A24.76,24.76,0,0,0,133,384.2c-.14,0-12.12-6.64-23.74-7.74A32.65,32.65,0,0,0,89,381.24c-.17,0,11.82,10.31,24.58,10.8" transform="translate(-23.93 -13.5)"/><path class="cls-3" d="M108.92,348.06a35.51,35.51,0,0,1-1.75,20.1c0,.13-10.84-8.74-12.65-20s5-19.09,4.9-19.09,7.13,8.55,9.5,19" transform="translate(-23.93 -13.5)"/><path class="cls-3" d="M87.44,372.14a24.31,24.31,0,0,0,20-4.3c-.13,0-10.25-8.46-21.23-11.51a32.19,32.19,0,0,0-20.37,1.15c-.16,0,9.52,12,21.63,14.66" transform="translate(-23.93 -13.5)"/><path class="cls-3" d="M91.11,328.74a35.1,35.1,0,0,1-5.37,19.19c0,.14-8.85-10.33-8.62-21.59s8.22-17.69,8.14-17.71,5.45,9.57,5.85,20.11" transform="translate(-23.93 -13.5)"/><path class="cls-3" d="M66,348.39A23.93,23.93,0,0,0,86,347.67c-.12,0-8.32-10-18.46-14.85a31.84,31.84,0,0,0-20-2.42c-.14,0,7.17,13.35,18.4,18" transform="translate(-23.93 -13.5)"/><path class="cls-3" d="M77.22,306.85a34.7,34.7,0,0,1-8.59,17.74c0,.13-6.79-11.59-4.65-22.54s11-15.83,11-15.86,3.71,10.33,2.27,20.66" transform="translate(-23.93 -13.5)"/><path class="cls-3" d="M49.28,321.57A23.67,23.67,0,0,0,69,324.38c-.1,0-6.34-11.14-15.42-17.69a31.66,31.66,0,0,0-19.15-5.91c-.13-.06,4.75,14.31,14.89,20.79" transform="translate(-23.93 -13.5)"/><path class="cls-3" d="M67.38,283A34,34,0,0,1,56,298.84c-.07.12-4.68-12.52-.76-22.87s13.45-13.56,13.38-13.6,1.93,10.81-1.23,20.66" transform="translate(-23.93 -13.5)"/><path class="cls-3" d="M37.57,292.47a23.64,23.64,0,0,0,18.77,6.23c-.09-.06-4.31-12-12.1-20.05a32,32,0,0,0-17.76-9.21c-.12-.08,2.26,14.89,11.09,23" transform="translate(-23.93 -13.5)"/><path class="cls-3" d="M61.74,257.9a33.07,33.07,0,0,1-13.8,13.49c-.07.11-2.49-13.11,3.08-22.6a24,24,0,0,1,15.37-11c-.06.08.07,11-4.65,20.12" transform="translate(-23.93 -13.5)"/><path class="cls-3" d="M31,261.85a23.7,23.7,0,0,0,17.35,9.47c-.08-.07-2.23-12.55-8.52-21.87A32.14,32.14,0,0,0,24,237.2c-.1-.1-.28,15.09,7,24.65" transform="translate(-23.93 -13.5)"/><path class="cls-3" d="M60.41,232.13A32.33,32.33,0,0,1,44.64,243c-.09.1-.24-13.38,6.83-21.78A23.58,23.58,0,0,1,68.4,213c-.07.07-1.84,10.94-8,19.09" transform="translate(-23.93 -13.5)"/><path class="cls-3" d="M29.64,230.51A23.79,23.79,0,0,0,45,243c-.07-.08-.08-12.76-4.63-23.12a32.55,32.55,0,0,0-13.4-15c-.08-.1-2.88,14.91,2.65,25.66" transform="translate(-23.93 -13.5)"/><path class="cls-3" d="M63.54,206.35a31.73,31.73,0,0,1-17.31,7.93c-.11.09,2.07-13.3,10.5-20.41a23.34,23.34,0,0,1,18.05-5.11c-.09.06-3.8,10.6-11.24,17.59" transform="translate(-23.93 -13.5)"/><path class="cls-3" d="M33.72,199.23A24,24,0,0,0,46.6,214.35c-.05-.1,2.12-12.67-.47-23.8a32.76,32.76,0,0,0-10.39-17.32c-.07-.12-5.55,14.35-2,26" transform="translate(-23.93 -13.5)"/><path class="cls-3" d="M71.25,181.22a31.37,31.37,0,0,1-18.4,4.84c-.13.06,4.44-12.9,14.09-18.53a23.09,23.09,0,0,1,18.71-1.95c-.11,0-5.82,10-14.4,15.64" transform="translate(-23.93 -13.5)"/><path class="cls-3" d="M43.37,168.81a23.89,23.89,0,0,0,9.83,17.37c0-.09,4.37-12.25,4-23.86a33.11,33.11,0,0,0-6.83-19.19c-.05-.12-8.28,13.42-7,25.68" transform="translate(-23.93 -13.5)"/><path class="cls-3" d="M83.68,157.38A30.85,30.85,0,0,1,64.63,159c-.14.05,6.89-12.15,17.6-16.16a22.84,22.84,0,0,1,18.92,1.26c-.13,0-7.9,9.08-17.47,13.27" transform="translate(-23.93 -13.5)"/><path class="cls-3" d="M58.73,140A23.85,23.85,0,0,0,65,159.2c0-.1,6.68-11.52,8.7-23.28S71.07,115.39,71,115.39,59.89,127.5,58.73,140" transform="translate(-23.93 -13.5)"/><path class="cls-3" d="M101,135.49a30.43,30.43,0,0,1-19.24-1.62c-.16,0,9.39-11.07,21-13.33A22.4,22.4,0,0,1,121.4,125c-.15,0-10,7.9-20.43,10.5" transform="translate(-23.93 -13.5)"/><path class="cls-3" d="M80,113.71C76,126,82.12,134.12,82,134.12s9-10.47,13.75-22,2.11-21.24,2-21.25S83.83,101.25,80,113.71" transform="translate(-23.93 -13.5)"/><path class="cls-3" d="M204,401.27l-.12-2.29A141.15,141.15,0,0,1,148,390.6a148.73,148.73,0,0,1-48-28.7c-29.61-26.26-48-62.83-51.69-103-3-32.88.24-62,9.78-86.4,10.24-26.27,27.48-46.47,51.25-60l-1.14-2c-24.23,13.85-41.81,34.45-52.25,61.21-9.67,24.79-13,54.22-9.93,87.45C49.72,299.87,68.35,337,98.4,363.61a150.88,150.88,0,0,0,48.78,29.15A143.33,143.33,0,0,0,204,401.27" transform="translate(-23.93 -13.5)"/><path class="cls-3" d="M391.41,99.27c8.46,7.15,10.37,18.81,10.37,18.81s-11.81,0-20.27-7.1-10.38-18.81-10.38-18.81,11.81-.06,20.28,7.1" transform="translate(-23.93 -13.5)"/><path class="cls-3" d="M344.2,376.41a36.53,36.53,0,0,0-6.63,20c0,.14,14.63-4.56,20.9-14.78a25.56,25.56,0,0,0,2.76-20.14c0,.1-10.33,5.68-17,14.9" transform="translate(-23.93 -13.5)"/><path class="cls-3" d="M355.75,407.31A25.14,25.14,0,0,1,337.46,396c.16,0,13.93-4.5,26-3.54A33.26,33.26,0,0,1,383,400.86c.17,0-14,8.22-27.28,6.45" transform="translate(-23.93 -13.5)"/><path class="cls-3" d="M369.47,364.16a35.77,35.77,0,0,0-2.25,20.4c0,.14,12.77-6.81,16.75-17.74s-1.36-19.93-1.27-19.92-8.75,7.25-13.23,17.26" transform="translate(-23.93 -13.5)"/><path class="cls-3" d="M386.42,392A24.76,24.76,0,0,1,367,384.2c.14,0,12.12-6.64,23.74-7.74A32.65,32.65,0,0,1,411,381.24c.17,0-11.82,10.31-24.58,10.8" transform="translate(-23.93 -13.5)"/><path class="cls-3" d="M391.08,348.06a35.51,35.51,0,0,0,1.75,20.1c0,.13,10.84-8.74,12.65-20s-5-19.09-4.9-19.09-7.13,8.55-9.5,19" transform="translate(-23.93 -13.5)"/><path class="cls-3" d="M412.56,372.14a24.31,24.31,0,0,1-20-4.3c.13,0,10.25-8.46,21.23-11.51a32.26,32.26,0,0,1,20.38,1.15c.15,0-9.53,12-21.64,14.66" transform="translate(-23.93 -13.5)"/><path class="cls-3" d="M408.89,328.74a35.1,35.1,0,0,0,5.37,19.19c0,.14,8.85-10.33,8.62-21.59s-8.22-17.69-8.14-17.71-5.45,9.57-5.85,20.11" transform="translate(-23.93 -13.5)"/><path class="cls-3" d="M434.05,348.39a23.93,23.93,0,0,1-20.08-.72c.12,0,8.32-10,18.46-14.85a31.84,31.84,0,0,1,20-2.42c.14,0-7.17,13.35-18.4,18" transform="translate(-23.93 -13.5)"/><path class="cls-3" d="M422.78,306.85a34.7,34.7,0,0,0,8.59,17.74c0,.13,6.79-11.59,4.65-22.54s-11-15.83-11-15.86-3.71,10.33-2.27,20.66" transform="translate(-23.93 -13.5)"/><path class="cls-3" d="M450.72,321.57A23.67,23.67,0,0,1,431,324.38c.1,0,6.34-11.14,15.42-17.69a31.66,31.66,0,0,1,19.15-5.91c.12-.06-4.75,14.31-14.89,20.79" transform="translate(-23.93 -13.5)"/><path class="cls-3" d="M432.62,283A34,34,0,0,0,444,298.84c.07.12,4.68-12.52.75-22.87s-13.44-13.56-13.37-13.6-1.93,10.81,1.23,20.66" transform="translate(-23.93 -13.5)"/><path class="cls-3" d="M462.43,292.47a23.64,23.64,0,0,1-18.77,6.23c.09-.06,4.31-12,12.1-20.05a32,32,0,0,1,17.77-9.21c.11-.08-2.27,14.89-11.1,23" transform="translate(-23.93 -13.5)"/><path class="cls-3" d="M438.26,257.9a33.07,33.07,0,0,0,13.8,13.49c.07.11,2.49-13.11-3.08-22.6a24,24,0,0,0-15.37-11c.06.08-.07,11,4.65,20.12" transform="translate(-23.93 -13.5)"/><path class="cls-3" d="M469,261.85a23.7,23.7,0,0,1-17.35,9.47c.08-.07,2.23-12.55,8.51-21.87A32.18,32.18,0,0,1,476,237.2c.1-.1.28,15.09-7,24.65" transform="translate(-23.93 -13.5)"/><path class="cls-3" d="M439.59,232.13A32.38,32.38,0,0,0,455.36,243c.09.1.24-13.38-6.83-21.78A23.58,23.58,0,0,0,431.6,213c.07.07,1.84,10.94,8,19.09" transform="translate(-23.93 -13.5)"/><path class="cls-3" d="M470.36,230.51A23.79,23.79,0,0,1,455,243c.07-.08.08-12.76,4.63-23.12a32.55,32.55,0,0,1,13.4-15c.08-.1,2.88,14.91-2.65,25.66" transform="translate(-23.93 -13.5)"/><path class="cls-3" d="M436.46,206.35a31.73,31.73,0,0,0,17.31,7.93c.11.09-2.07-13.3-10.5-20.41a23.34,23.34,0,0,0-18-5.11c.09.06,3.8,10.6,11.24,17.59" transform="translate(-23.93 -13.5)"/><path class="cls-3" d="M466.28,199.23a24,24,0,0,1-12.88,15.12c.05-.1-2.12-12.67.48-23.8a32.71,32.71,0,0,1,10.38-17.32c.07-.12,5.55,14.35,2,26" transform="translate(-23.93 -13.5)"/><path class="cls-3" d="M428.75,181.22a31.37,31.37,0,0,0,18.4,4.84c.13.06-4.44-12.9-14.09-18.53a23.09,23.09,0,0,0-18.71-1.95c.11,0,5.82,10,14.4,15.64" transform="translate(-23.93 -13.5)"/><path class="cls-3" d="M456.63,168.81a23.89,23.89,0,0,1-9.83,17.37c0-.09-4.37-12.25-4-23.86a33.11,33.11,0,0,1,6.83-19.19c0-.12,8.28,13.42,7,25.68" transform="translate(-23.93 -13.5)"/><path class="cls-3" d="M416.32,157.38A30.85,30.85,0,0,0,435.37,159c.14.05-6.89-12.15-17.6-16.16a22.83,22.83,0,0,0-18.92,1.26c.13,0,7.9,9.08,17.47,13.27" transform="translate(-23.93 -13.5)"/><path class="cls-3" d="M441.27,140A23.89,23.89,0,0,1,435,159.2c0-.1-6.68-11.52-8.7-23.28s2.59-20.53,2.69-20.53S440.11,127.5,441.27,140" transform="translate(-23.93 -13.5)"/><path class="cls-3" d="M399,135.49a30.43,30.43,0,0,0,19.24-1.62c.16,0-9.39-11.07-21-13.33A22.4,22.4,0,0,0,378.6,125c.15,0,10,7.9,20.43,10.5" transform="translate(-23.93 -13.5)"/><path class="cls-3" d="M420,113.71C424,126,417.88,134.12,418,134.12s-9.05-10.47-13.75-22-2.11-21.24-2-21.25,13.93,10.42,17.8,22.88" transform="translate(-23.93 -13.5)"/><path class="cls-3" d="M296,401.27l.12-2.29A141.15,141.15,0,0,0,352,390.6a148.73,148.73,0,0,0,48.05-28.7c29.61-26.26,48-62.83,51.69-103,3.05-32.88-.24-62-9.78-86.4-10.24-26.27-27.49-46.47-51.25-60l1.14-2c24.23,13.85,41.81,34.45,52.25,61.21,9.67,24.79,13,54.22,9.93,87.45-3.78,40.73-22.41,77.83-52.46,104.47a150.77,150.77,0,0,1-48.78,29.15A143.33,143.33,0,0,1,296,401.27" transform="translate(-23.93 -13.5)"/><polygon class="cls-3" points="228.56 0 238.32 19.79 260.16 22.96 244.36 38.37 248.09 60.12 228.56 49.85 209.02 60.12 212.75 38.37 196.95 22.96 218.79 19.79 228.56 0"/><polygon class="cls-3" points="153.33 36.84 160.54 51.46 176.68 53.8 165 65.18 167.76 81.25 153.33 73.67 138.9 81.25 141.66 65.18 129.98 53.8 146.11 51.46 153.33 36.84"/><polygon class="cls-3" points="303.78 36.84 311 51.46 327.13 53.8 315.45 65.18 318.21 81.25 303.78 73.67 289.35 81.25 292.11 65.18 280.43 53.8 296.56 51.46 303.78 36.84"/><text class="cls-4" transform="translate(196.49 381.66)">E<tspan class="cls-5" x="13.41" y="0">S</tspan><tspan x="27.28" y="0">T</tspan><tspan class="cls-6" x="41.58" y="0">D</tspan></text><text class="cls-7" transform="translate(201.55 406.47)">2<tspan class="cls-8" x="13.15" y="0">0</tspan><tspan x="26.25" y="0">2</tspan><tspan class="cls-9" x="39.4" y="0">1</tspan></text></g></svg>